<?xml version="1.0" encoding="utf-8"?>
<!-- Generator: Adobe Illustrator 16.0.0, SVG Export Plug-In . SVG Version: 6.00 Build 0)  -->
<!DOCTYPE svg PUBLIC "-//W3C//DTD SVG 1.1//EN" "http://www.w3.org/Graphics/SVG/1.1/DTD/svg11.dtd">
<svg version="1.1" id="Layer_1" xmlns="http://www.w3.org/2000/svg" xmlns:xlink="http://www.w3.org/1999/xlink" x="0px" y="0px"
	 width="33px" height="33px" viewBox="0 0 33 33" enable-background="new 0 0 33 33" xml:space="preserve">
<g>
	<path fill="#202733" d="M25.615,27.686H7.386c-0.336,0-0.607-0.271-0.607-0.607V5.922c0-0.336,0.271-0.607,0.607-0.607h14.583
		c0.334,0,0.607,0.271,0.607,0.607s-0.273,0.607-0.607,0.607H7.994v19.941h17.014V8.96c0-0.336,0.27-0.607,0.607-0.607
		c0.336,0,0.607,0.271,0.607,0.607v18.118C26.223,27.414,25.951,27.686,25.615,27.686"/>
	<path fill="#202733" d="M10.273,25.256c-0.336,0-0.607-0.272-0.607-0.608V8.353c0-0.336,0.271-0.608,0.607-0.608
		c0.334,0,0.608,0.272,0.608,0.608v16.295C10.881,24.983,10.607,25.256,10.273,25.256"/>
	<path fill="#202733" d="M20.424,13.821h-7.898c-0.336,0-0.607-0.272-0.607-0.608s0.271-0.607,0.607-0.607h7.898
		c0.336,0,0.607,0.271,0.607,0.607S20.76,13.821,20.424,13.821"/>
	<path fill="#202733" d="M17.994,16.859h-5.469c-0.336,0-0.607-0.272-0.607-0.607c0-0.336,0.271-0.607,0.607-0.607h5.469
		c0.336,0,0.607,0.271,0.607,0.607C18.602,16.587,18.33,16.859,17.994,16.859"/>
</g>
</svg>
