<?xml version="1.0" encoding="utf-8"?>
<!-- Generator: Adobe Illustrator 16.0.0, SVG Export Plug-In . SVG Version: 6.00 Build 0)  -->
<!DOCTYPE svg PUBLIC "-//W3C//DTD SVG 1.1//EN" "http://www.w3.org/Graphics/SVG/1.1/DTD/svg11.dtd">
<svg version="1.1" id="Layer_1" xmlns="http://www.w3.org/2000/svg" xmlns:xlink="http://www.w3.org/1999/xlink" x="0px" y="0px"
	 width="33px" height="33px" viewBox="0 0 33 33" enable-background="new 0 0 33 33" xml:space="preserve">
<path fill="#202733" d="M21.691,25.693c-2.062,0-3.738-1.678-3.738-3.739c0-0.225,0.038-0.41,0.086-0.646l0.063-0.312l-4.026-2.045
	l-0.128,0.128c-0.731,0.729-1.619,1.1-2.638,1.1c-2.026,0-3.738-1.712-3.738-3.738c0-2.061,1.677-3.737,3.738-3.737
	c0.895,0,1.772,0.351,2.47,0.989l0.128,0.117l4.099-2.113l-0.067-0.203c-0.046-0.137-0.046-0.288-0.046-0.448
	c0-2.062,1.677-3.739,3.738-3.739c2.026,0,3.738,1.712,3.738,3.739c0,2.061-1.677,3.737-3.738,3.737
	c-1.276,0-2.449-0.616-3.136-1.647l-0.125-0.188l-3.738,1.966l0.077,0.206c0.182,0.485,0.277,0.982,0.277,1.438
	c0,0.506-0.07,0.915-0.214,1.251l-0.091,0.213l3.853,2.022l0.128-0.168c0.731-0.957,1.786-1.484,2.969-1.484
	c2.094,0,3.797,1.598,3.797,3.562C25.429,24.016,23.752,25.693,21.691,25.693z M21.574,19.651c-0.644,0-1.232,0.248-1.702,0.719
	c-0.513,0.448-0.778,1.045-0.778,1.76c0,1.366,1.113,2.479,2.48,2.479c0.564,0,1.1-0.188,1.508-0.526
	c0.424-0.301,0.768-0.814,0.905-1.362c0.059-0.177,0.138-0.415,0.053-0.669C24.052,20.764,22.94,19.651,21.574,19.651z
	 M11.251,14.08c-1.368,0-2.48,1.112-2.48,2.479c0,1.366,1.113,2.479,2.48,2.479c0.392,0,0.846-0.126,1.183-0.328
	c0.568-0.316,1.029-0.897,1.225-1.552c0.069-0.207,0.069-0.415,0.069-0.599c0-0.265-0.063-0.519-0.125-0.764
	c-0.299-0.754-0.785-1.283-1.38-1.521C11.944,14.133,11.535,14.08,11.251,14.08z M21.632,8.625c-1.206,0-2.271,0.87-2.477,2.024
	c-0.063,0.104-0.063,0.266-0.063,0.396c0,0.501,0.188,1.009,0.576,1.552c0.511,0.587,1.239,0.927,1.963,0.927
	c1.367,0,2.479-1.112,2.479-2.479c0-0.265-0.063-0.52-0.125-0.766c-0.208-0.624-0.675-1.14-1.256-1.398
	C22.429,8.76,22.041,8.625,21.632,8.625z"/>
</svg>
