<?xml version="1.0" encoding="utf-8"?>
<!-- Generator: Adobe Illustrator 16.0.0, SVG Export Plug-In . SVG Version: 6.00 Build 0)  -->
<!DOCTYPE svg PUBLIC "-//W3C//DTD SVG 1.1//EN" "http://www.w3.org/Graphics/SVG/1.1/DTD/svg11.dtd">
<svg version="1.1" id="Layer_1" xmlns="http://www.w3.org/2000/svg" xmlns:xlink="http://www.w3.org/1999/xlink" x="0px" y="0px"
	 width="33px" height="33px" viewBox="0 0 33 33" enable-background="new 0 0 33 33" xml:space="preserve">
<g>
	<path fill="#202733" d="M16.5,21.358c-0.414,0-0.838-0.047-1.248-0.093c-0.572-0.081-1.037-0.583-1.08-1.166l-0.051-1.043
		l-0.191-0.063c-0.115-0.036-0.248-0.077-0.342-0.141l-0.107-0.07l-0.797,0.742c-0.254,0.214-0.551,0.333-0.828,0.333
		c-0.27,0-0.557-0.095-0.746-0.246c-0.693-0.509-1.297-1.113-1.799-1.8c-0.348-0.479-0.314-1.144,0.082-1.58l0.721-0.772
		l-0.031-0.091c-0.02-0.062-0.049-0.125-0.08-0.191c-0.037-0.079-0.078-0.165-0.104-0.266l-0.029-0.114l-1.055-0.053
		c-0.58-0.041-1.082-0.508-1.164-1.084c-0.045-0.405-0.092-0.829-0.092-1.243s0.047-0.838,0.094-1.248
		c0.08-0.571,0.582-1.037,1.166-1.079l1.041-0.051l0.064-0.193c0.035-0.116,0.078-0.248,0.141-0.343l0.068-0.104l-0.74-0.798
		C8.971,8.181,8.938,7.52,9.309,7.023c0.504-0.687,1.107-1.292,1.797-1.797c0.193-0.154,0.48-0.249,0.75-0.249
		c0.277,0,0.574,0.119,0.836,0.337l0.766,0.716l0.092-0.029c0.063-0.021,0.125-0.051,0.191-0.081
		c0.08-0.038,0.166-0.079,0.266-0.104l0.115-0.029l0.053-1.055c0.041-0.58,0.506-1.082,1.082-1.164
		c0.406-0.045,0.83-0.091,1.244-0.091s0.838,0.046,1.248,0.092c0.57,0.081,1.037,0.583,1.078,1.166l0.053,1.042l0.197,0.066
		c0.113,0.036,0.244,0.077,0.336,0.139l0.105,0.07l0.797-0.743c0.256-0.212,0.553-0.331,0.83-0.331c0.27,0,0.555,0.095,0.744,0.246
		c0.693,0.508,1.299,1.113,1.801,1.799c0.348,0.479,0.314,1.145-0.082,1.58l-0.721,0.772l0.029,0.09
		c0.021,0.063,0.051,0.126,0.082,0.193c0.037,0.079,0.078,0.164,0.102,0.264l0.029,0.116l1.057,0.053
		c0.58,0.041,1.08,0.507,1.162,1.082c0.047,0.406,0.094,0.83,0.094,1.244s-0.047,0.838-0.094,1.249
		c-0.082,0.57-0.582,1.037-1.166,1.078l-1.043,0.052l-0.063,0.193c-0.035,0.115-0.078,0.247-0.141,0.341l-0.07,0.105l0.742,0.797
		c0.42,0.421,0.455,1.083,0.082,1.578c-0.502,0.688-1.107,1.292-1.795,1.797c-0.195,0.155-0.48,0.25-0.75,0.25
		c-0.277,0-0.574-0.119-0.836-0.338l-0.768-0.717l-0.09,0.031c-0.063,0.021-0.127,0.05-0.191,0.081
		c-0.08,0.038-0.166,0.078-0.266,0.104l-0.115,0.028l-0.053,1.057c-0.041,0.579-0.508,1.081-1.082,1.162
		C17.338,21.312,16.914,21.358,16.5,21.358z M15.174,20.252l0.131,0.018c0.346,0.049,0.721,0.095,1.102,0.095
		c0.348,0,0.658-0.039,0.986-0.081l0.246-0.03l0.094-1.933c0.697-0.146,1.334-0.404,1.896-0.775l1.461,1.321l0.107-0.082
		c0.617-0.477,1.148-1.008,1.576-1.579l0.078-0.105l-1.32-1.464c0.385-0.647,0.646-1.282,0.777-1.893l1.934-0.094l0.029-0.245
		c0.043-0.328,0.082-0.64,0.082-0.987s-0.039-0.658-0.082-0.986l-0.029-0.245l-1.932-0.096c-0.146-0.696-0.406-1.333-0.775-1.896
		l1.318-1.459l-0.082-0.105c-0.473-0.617-1.004-1.149-1.576-1.58L21.09,5.971l-1.467,1.322c-0.645-0.387-1.279-0.646-1.891-0.779
		l-0.094-1.93l-0.131-0.02c-0.328-0.048-0.715-0.096-1.102-0.096c-0.354,0-0.668,0.04-1,0.083l-0.232,0.029L15.08,6.514
		c-0.699,0.145-1.336,0.406-1.896,0.774l-1.461-1.319L11.617,6.05c-0.619,0.477-1.15,1.009-1.578,1.581l-0.08,0.104l1.322,1.464
		c-0.385,0.646-0.646,1.282-0.777,1.891l-1.932,0.096l-0.018,0.131c-0.051,0.347-0.098,0.72-0.098,1.101
		c0,0.348,0.041,0.659,0.082,0.987l0.031,0.245l1.932,0.094c0.146,0.698,0.406,1.335,0.775,1.896l-1.318,1.461l0.082,0.106
		c0.475,0.619,1.004,1.149,1.578,1.578l0.105,0.08l1.461-1.323c0.648,0.386,1.283,0.647,1.895,0.777L15.174,20.252z"/>
	<path fill="#202733" d="M16.502,15.775c-1.342,0-2.555-0.809-3.092-2.062c-0.336-0.861-0.336-1.791-0.002-2.545
		c0.299-0.81,0.936-1.46,1.797-1.843c0.395-0.176,0.842-0.269,1.297-0.269c1.34,0,2.551,0.81,3.088,2.063
		c0.336,0.861,0.338,1.791,0.002,2.546c-0.299,0.808-0.936,1.46-1.797,1.843C17.402,15.684,16.955,15.775,16.502,15.775z
		 M16.502,10.146c-0.26,0-0.563,0.053-0.85,0.149c-1.193,0.519-1.725,1.826-1.223,2.983c0.334,0.814,1.168,1.363,2.072,1.363
		c0.258,0,0.559-0.053,0.848-0.148c1.193-0.519,1.725-1.827,1.223-2.984C18.234,10.695,17.402,10.146,16.502,10.146z"/>
	<path fill="#202733" d="M8.109,29.523c-1.34,0-2.553-0.81-3.092-2.063c-0.334-0.862-0.336-1.79,0-2.545
		c0.299-0.81,0.936-1.46,1.797-1.843c0.395-0.176,0.842-0.269,1.295-0.269h16.781c1.342,0,2.555,0.81,3.09,2.062
		c0.336,0.862,0.338,1.792,0.002,2.546c-0.299,0.809-0.936,1.461-1.795,1.844c-0.395,0.176-0.842,0.268-1.295,0.268H8.109z
		 M7.949,28.39l0.16,0.046h16.941v-0.053c0.219-0.017,0.459-0.065,0.689-0.144c1.193-0.519,1.725-1.826,1.221-2.983
		c-0.336-0.814-1.168-1.363-2.068-1.363H8.109c-0.258,0-0.559,0.053-0.848,0.149c-1.193,0.518-1.725,1.826-1.223,2.983
		c0.314,0.766,1.07,1.297,1.91,1.357V28.39z"/>
	<path fill="#202733" d="M8.309,27.495c-0.533,0-1.012-0.321-1.225-0.818c-0.133-0.339-0.135-0.708-0.002-1.004
		c0.119-0.325,0.371-0.581,0.715-0.734c0.154-0.068,0.33-0.104,0.512-0.104h10.447v2.661H8.309z"/>
</g>
</svg>
