<?xml version="1.0" encoding="utf-8"?>
<!-- Generator: Adobe Illustrator 16.0.0, SVG Export Plug-In . SVG Version: 6.00 Build 0)  -->
<!DOCTYPE svg PUBLIC "-//W3C//DTD SVG 1.1//EN" "http://www.w3.org/Graphics/SVG/1.1/DTD/svg11.dtd">
<svg version="1.1" id="Layer_1" xmlns="http://www.w3.org/2000/svg" xmlns:xlink="http://www.w3.org/1999/xlink" x="0px" y="0px"
	 width="33px" height="33px" viewBox="0 0 33 33" enable-background="new 0 0 33 33" xml:space="preserve">
<g>
	<path fill="#202733" d="M6.731,26.875c-0.303,0-0.578-0.276-0.578-0.58V6.705c0-0.304,0.275-0.58,0.578-0.58h11.297
		c0.303,0,0.578,0.276,0.578,0.58v3.93c0,0.304-0.275,0.58-0.578,0.58c-0.305,0-0.58-0.276-0.58-0.58v-3.35H7.313v18.43h10.135
		v-3.526c0-0.303,0.275-0.579,0.58-0.579c0.303,0,0.578,0.276,0.578,0.579v4.106c0,0.304-0.275,0.58-0.578,0.58H6.731z"/>
	<path fill="#202733" d="M22.239,21.633c-0.154,0-0.305-0.052-0.414-0.144s-0.18-0.238-0.186-0.394
		c-0.008-0.153,0.045-0.293,0.146-0.396l3.152-3.562H13.833c-0.303,0-0.58-0.276-0.58-0.58s0.277-0.58,0.58-0.58h11.164
		l-3.139-3.548c-0.258-0.26-0.17-0.606,0.045-0.821c0.098-0.097,0.217-0.147,0.344-0.147c0.146,0,0.289,0.068,0.389,0.188
		l4.053,4.522c0.121,0.122,0.158,0.217,0.158,0.387c0,0.104-0.002,0.166-0.027,0.218c-0.033,0.09-0.059,0.112-0.133,0.177
		l-0.104,0.097l-3.941,4.412C22.548,21.573,22.403,21.633,22.239,21.633L22.239,21.633z"/>
</g>
</svg>
