<?xml version="1.0" encoding="utf-8"?>
<!-- Generator: Adobe Illustrator 16.0.0, SVG Export Plug-In . SVG Version: 6.00 Build 0)  -->
<!DOCTYPE svg PUBLIC "-//W3C//DTD SVG 1.1//EN" "http://www.w3.org/Graphics/SVG/1.1/DTD/svg11.dtd">
<svg version="1.1" id="Layer_1" xmlns="http://www.w3.org/2000/svg" xmlns:xlink="http://www.w3.org/1999/xlink" x="0px" y="0px"
	 width="33px" height="33px" viewBox="0 0 33 33" enable-background="new 0 0 33 33" xml:space="preserve">
<g>
	<path fill="#202733" d="M23.839,25.662L23.839,25.662c-0.154,0-0.32-0.023-0.492-0.068l-2.51-0.794
		c-0.514-0.199-0.834-0.482-0.994-0.853c-0.168-0.387-0.145-0.83,0.068-1.356l1.045-3.313c0.244-1.075,0.895-1.519,1.873-1.163
		l2.537,0.801c0.482,0.136,0.811,0.365,0.982,0.7c0.238,0.464,0.102,0.991-0.082,1.491l-1.061,3.353
		C24.942,25.502,24.235,25.662,23.839,25.662z M22.231,19.035c-0.135,0-0.23,0.322-0.275,0.515l-1.07,3.392
		c-0.084,0.212-0.154,0.449-0.09,0.596c0.057,0.133,0.242,0.229,0.387,0.286l2.453,0.774c0.063,0.016,0.148,0.02,0.205,0.027
		c0.102,0,0.256-0.002,0.369-0.45l1.074-3.401c0.18-0.49,0.166-0.638,0.141-0.684c-0.021-0.043-0.127-0.115-0.355-0.179
		l-2.576-0.813C22.349,19.045,22.272,19.035,22.231,19.035z"/>
	<path fill="#202733" d="M26.065,18.848c-0.176,0-0.367-0.037-0.566-0.104l-2.869-0.906c-0.732-0.26-1.018-0.877-0.764-1.618
		c0.32-0.933,1.26-1.535,2.396-1.535c0.33,0,0.66,0.053,0.984,0.154c1.471,0.465,2.355,1.848,1.971,3.083
		C27.034,18.51,26.614,18.848,26.065,18.848z M24.263,15.723c-0.676,0-1.244,0.334-1.416,0.832
		c-0.078,0.231-0.045,0.242,0.111,0.299l2.865,0.904c0.125,0.042,0.199,0.051,0.242,0.051c0.049,0,0.1,0,0.16-0.196
		c0.213-0.68-0.379-1.496-1.291-1.784C24.712,15.758,24.485,15.723,24.263,15.723z"/>
	<path fill="#202733" d="M20.899,29.355L20.899,29.355c-0.68,0-0.932-0.683-1.027-0.939l-0.738-2.313
		c-0.109-0.261-0.082-0.588,0.084-0.837c0.223-0.331,0.652-0.452,1.096-0.291l3.209,1.015c0.51,0.125,0.65,0.467,0.686,0.658
		c0.08,0.433-0.217,0.813-0.52,1.023l-1.941,1.353C21.431,29.25,21.161,29.355,20.899,29.355z M20.136,26.007l0.717,2.071
		c0.041,0.11,0.076,0.178,0.1,0.218c0.041-0.019,0.105-0.055,0.199-0.12l1.822-1.272L20.136,26.007z"/>
	<path fill-rule="evenodd" clip-rule="evenodd" fill="#202733" d="M21.362,12.357H9.427c-0.43,0-0.781,0.303-0.781,0.674l0,0
		c0,0.371,0.352,0.674,0.781,0.674h11.936c0.43,0,0.783-0.303,0.783-0.674l0,0C22.146,12.66,21.792,12.357,21.362,12.357
		L21.362,12.357z"/>
	<path fill-rule="evenodd" clip-rule="evenodd" fill="#202733" d="M19.624,16.766H9.462c-0.367,0-0.668,0.313-0.668,0.694l0,0
		c0,0.382,0.301,0.694,0.668,0.694h10.162c0.365,0,0.664-0.313,0.664-0.694l0,0C20.288,17.078,19.989,16.766,19.624,16.766
		L19.624,16.766z"/>
	<path fill-rule="evenodd" clip-rule="evenodd" fill="#202733" d="M18.304,21.451H9.577c-0.313,0-0.572,0.313-0.572,0.695l0,0
		c0,0.383,0.26,0.695,0.572,0.695h8.727c0.313,0,0.572-0.313,0.572-0.695l0,0C18.876,21.765,18.616,21.451,18.304,21.451
		L18.304,21.451z"/>
	<path fill="#202733" d="M24.944,9.258l-4.482-4.709c-0.73-0.75-0.973-0.877-2.197-0.904H9.407c-1.023,0-1.951,0.418-2.623,1.09
		C6.11,5.408,5.692,6.336,5.692,7.357v16.724c0,1.022,0.418,1.95,1.092,2.623c0.672,0.673,1.6,1.09,2.623,1.09h9.566l-0.576-1.442
		h-8.99c-0.623,0-1.193-0.256-1.605-0.667c-0.41-0.412-0.666-0.979-0.666-1.604V7.357c0-0.623,0.256-1.19,0.666-1.603
		c0.412-0.411,0.982-0.667,1.605-0.667h9.822c-0.076,1.594-0.09,4.039,0.473,4.697c0.564,0.658,2.844,0.752,4.426,0.606l0.047,3.647
		c0.475,0.037,1.029,0.139,1.531,0.381v-2.959C25.718,10.481,25.53,9.758,24.944,9.258z M20.528,9.07
		c-0.348-0.429-0.24-3.1-0.24-3.1c0-0.464,2.494,2.405,3.143,3.326C23.647,9.604,20.87,9.492,20.528,9.07z"/>
</g>
</svg>
