<?xml version="1.0" encoding="utf-8"?>
<!-- Generator: Adobe Illustrator 16.0.0, SVG Export Plug-In . SVG Version: 6.00 Build 0)  -->
<!DOCTYPE svg PUBLIC "-//W3C//DTD SVG 1.1//EN" "http://www.w3.org/Graphics/SVG/1.1/DTD/svg11.dtd">
<svg version="1.1" id="Layer_1" xmlns="http://www.w3.org/2000/svg" xmlns:xlink="http://www.w3.org/1999/xlink" x="0px" y="0px"
	 width="33px" height="33px" viewBox="0 0 33 33" enable-background="new 0 0 33 33" xml:space="preserve">
<g>
	<path fill="#202733" d="M6.236,8.289h20.529c0.469,0,0.879-0.41,0.879-0.88c0-0.469-0.41-0.88-0.879-0.88H6.236
		c-0.469,0-0.881,0.411-0.881,0.88C5.355,7.878,5.709,8.289,6.236,8.289z"/>
	<path fill="#202733" d="M6.236,14.331h13.49c0.469,0,0.879-0.41,0.879-0.881c0-0.469-0.41-0.879-0.879-0.879H6.236
		c-0.469,0-0.881,0.41-0.881,0.879C5.355,13.92,5.709,14.331,6.236,14.331z"/>
	<path fill="#202733" d="M26.766,18.611H6.236c-0.469,0-0.881,0.411-0.881,0.88s0.412,0.88,0.881,0.88h20.529
		c0.469,0,0.879-0.411,0.879-0.88S27.234,18.611,26.766,18.611z"/>
	<path fill="#202733" d="M19.727,24.711H6.236c-0.469,0-0.881,0.41-0.881,0.879c0,0.47,0.412,0.881,0.881,0.881h13.49
		c0.469,0,0.879-0.411,0.879-0.881C20.605,25.122,20.195,24.711,19.727,24.711z"/>
</g>
</svg>
