<?xml version="1.0" encoding="utf-8"?>
<!-- Generator: Adobe Illustrator 16.0.0, SVG Export Plug-In . SVG Version: 6.00 Build 0)  -->
<!DOCTYPE svg PUBLIC "-//W3C//DTD SVG 1.1//EN" "http://www.w3.org/Graphics/SVG/1.1/DTD/svg11.dtd">
<svg version="1.1" id="Layer_1" xmlns="http://www.w3.org/2000/svg" xmlns:xlink="http://www.w3.org/1999/xlink" x="0px" y="0px"
	 width="33px" height="33px" viewBox="0 0 33 33" enable-background="new 0 0 33 33" xml:space="preserve">
<g>
	<g>
		<g>
			<path fill="#202733" d="M26.199,22.698H6.803c-0.667,0-1.21-0.544-1.21-1.21V7.049c0-0.666,0.543-1.209,1.21-1.209h19.396
				c0.666,0,1.208,0.543,1.208,1.209v14.439C27.407,22.154,26.865,22.698,26.199,22.698 M6.803,6.832
				c-0.12,0-0.219,0.099-0.219,0.217v14.439c0,0.12,0.099,0.218,0.219,0.218h19.396c0.12,0,0.217-0.098,0.217-0.218V7.049
				c0-0.118-0.097-0.217-0.217-0.217H6.803z"/>
			<path fill="#202733" d="M26.707,18.73H6.306c-0.269,0-0.485-0.221-0.485-0.494c0-0.274,0.217-0.497,0.485-0.497h20.401
				c0.269,0,0.485,0.223,0.485,0.497C27.192,18.51,26.976,18.73,26.707,18.73"/>
			<path fill="#202733" d="M5.097,27.16c-0.169,0-0.332-0.086-0.425-0.241c-0.142-0.235-0.066-0.538,0.169-0.68l2.48-1.487
				c0.076-0.048,0.165-0.07,0.255-0.07h11.472c-0.592-0.497-1.061-1.367-1.061-2.479c0-0.275,0.223-0.496,0.497-0.496
				c0.272,0,0.495,0.221,0.495,0.496c0,1.997,2.006,2.472,2.092,2.489c0.246,0.057,0.412,0.289,0.385,0.54
				c-0.029,0.251-0.24,0.44-0.493,0.44H7.713l-2.36,1.418C5.271,27.138,5.186,27.16,5.097,27.16"/>
			<path fill="#202733" d="M27.903,27.16c-0.086,0-0.175-0.022-0.255-0.07l-2.36-1.418h-13.25c-0.252,0-0.465-0.189-0.492-0.44
				c-0.028-0.251,0.138-0.483,0.383-0.54c0.084-0.018,2.093-0.509,2.093-2.489c0-0.275,0.223-0.496,0.495-0.496
				c0.273,0,0.497,0.221,0.497,0.496c0,1.112-0.47,1.982-1.062,2.479h11.473c0.09,0,0.178,0.022,0.256,0.07l2.479,1.487
				c0.234,0.142,0.311,0.444,0.168,0.68C28.235,27.074,28.072,27.16,27.903,27.16"/>
			<path fill="#202733" d="M16.996,21.209c-0.548,0-0.991-0.443-0.991-0.991c0-0.547,0.443-0.991,0.991-0.991
				c0.547,0,0.991,0.444,0.991,0.991C17.987,20.766,17.543,21.209,16.996,21.209"/>
		</g>
	</g>
	<g>
		<path fill="#202733" d="M14.561,12.595c0,2.004-1.214,3.147-2.863,3.147c-1.685,0-2.748-1.285-2.748-3.041
			c0-1.835,1.152-3.13,2.837-3.13C13.532,9.571,14.561,10.893,14.561,12.595z M10.102,12.684c0,1.215,0.611,2.181,1.658,2.181
			c1.055,0,1.648-0.975,1.648-2.225c0-1.126-0.559-2.19-1.648-2.19C10.678,10.449,10.102,11.451,10.102,12.684z"/>
		<path fill="#202733" d="M15.5,9.669h3.448v0.896H16.59v1.649h2.199v0.896H16.59v2.535H15.5V9.669z"/>
		<path fill="#202733" d="M20.012,9.669h3.448v0.896h-2.358v1.649h2.199v0.896h-2.199v2.535h-1.09V9.669z"/>
	</g>
</g>
</svg>
