<?xml version="1.0" encoding="utf-8"?>
<!-- Generator: Adobe Illustrator 16.0.0, SVG Export Plug-In . SVG Version: 6.00 Build 0)  -->
<!DOCTYPE svg PUBLIC "-//W3C//DTD SVG 1.1//EN" "http://www.w3.org/Graphics/SVG/1.1/DTD/svg11.dtd">
<svg version="1.1" id="Layer_1" xmlns="http://www.w3.org/2000/svg" xmlns:xlink="http://www.w3.org/1999/xlink" x="0px" y="0px"
	 width="33px" height="33px" viewBox="0 0 33 33" enable-background="new 0 0 33 33" xml:space="preserve">
<path fill="#202733" d="M16.5,26.925c-1.512,0-2.742-1.229-2.742-2.741v-0.367h-5.41c-0.446,0-0.848-0.192-1.16-0.558
	c-0.294-0.345-0.399-0.788-0.297-1.249c0.035-0.297,0.608-2.46,2.235-4.411l0.058-0.069v-4.138c0-4.034,3.282-7.316,7.316-7.316
	s7.316,3.282,7.316,7.316v4.314l0.06,0.07c1.577,1.851,2.196,3.913,2.229,4.142c0.106,0.487,0.009,0.989-0.237,1.282
	c-0.296,0.396-0.735,0.616-1.215,0.616H19.24v0.367C19.24,25.695,18.011,26.925,16.5,26.925z M15.018,24.242
	c0,0.789,0.692,1.481,1.482,1.481c0.816,0,1.48-0.665,1.48-1.481v-0.367h-2.963V24.242z M10.385,18.041
	c-1.789,1.892-2.317,4.172-2.34,4.27l-0.068,0.305H24.92L24.835,22.3c-0.024-0.09-0.607-2.197-2.339-4.081V13.45
	c0-3.34-2.716-6.057-6.055-6.057c-3.34,0-6.057,2.717-6.057,6.057V18.041z"/>
</svg>
