<?xml version="1.0" encoding="utf-8"?>
<!-- Generator: Adobe Illustrator 16.0.0, SVG Export Plug-In . SVG Version: 6.00 Build 0)  -->
<!DOCTYPE svg PUBLIC "-//W3C//DTD SVG 1.1//EN" "http://www.w3.org/Graphics/SVG/1.1/DTD/svg11.dtd">
<svg version="1.1" id="Layer_1" xmlns="http://www.w3.org/2000/svg" xmlns:xlink="http://www.w3.org/1999/xlink" x="0px" y="0px"
	 width="2.75px" height="2.75px" viewBox="0 0 2.75 2.75" enable-background="new 0 0 2.75 2.75" xml:space="preserve">
<g>
	<g>
		<g>
			<path fill="#A9A9A9	" d="M1.375,2.521c-0.308,0-0.596-0.119-0.813-0.337C0.344,1.967,0.225,1.678,0.225,1.37
				c0-0.307,0.119-0.597,0.338-0.813C0.779,0.34,1.067,0.22,1.375,0.22s0.596,0.12,0.813,0.337c0.449,0.448,0.449,1.178,0,1.627
				C1.971,2.401,1.683,2.521,1.375,2.521z M1.375,0.397c-0.26,0-0.504,0.101-0.688,0.284C0.503,0.866,0.402,1.11,0.402,1.37
				s0.101,0.504,0.284,0.688c0.185,0.184,0.429,0.285,0.688,0.285s0.504-0.102,0.688-0.285c0.379-0.38,0.379-0.998,0-1.377
				C1.879,0.498,1.635,0.397,1.375,0.397z"/>
		</g>
	</g>
	<path fill="#A9A9A9	" d="M1.662,0.886L1.375,1.173L1.088,0.886c-0.055-0.055-0.144-0.054-0.197,0
		C0.836,0.939,0.836,1.028,0.892,1.083L1.179,1.37L0.891,1.657c-0.055,0.055-0.055,0.143,0,0.197c0.054,0.055,0.143,0.054,0.197,0
		l0.287-0.288l0.287,0.288c0.055,0.055,0.144,0.054,0.197,0c0.055-0.054,0.055-0.143-0.001-0.197L1.571,1.37l0.288-0.287
		c0.055-0.055,0.055-0.144,0-0.197C1.806,0.831,1.717,0.832,1.662,0.886z"/>
</g>
</svg>
