<?xml version="1.0" encoding="utf-8"?>
<!-- Generator: Adobe Illustrator 16.0.0, SVG Export Plug-In . SVG Version: 6.00 Build 0)  -->
<!DOCTYPE svg PUBLIC "-//W3C//DTD SVG 1.1//EN" "http://www.w3.org/Graphics/SVG/1.1/DTD/svg11.dtd">
<svg version="1.1" id="Layer_1" xmlns="http://www.w3.org/2000/svg" xmlns:xlink="http://www.w3.org/1999/xlink" x="0px" y="0px"
	 width="200px" height="100px" viewBox="0 0 200 100" enable-background="new 0 0 200 100" xml:space="preserve">
<g>
	<g>
		<g>
			<path fill="#FFFFFF" d="M190.167,55.407v-3.92h-1.398v-0.802h3.747v0.802h-1.395v3.92H190.167z"/>
			<path fill="#FFFFFF" d="M194.005,55.407v-4.722h1.432l0.854,3.222l0.846-3.222h1.432v4.722h-0.885v-3.716l-0.937,3.716h-0.924
				l-0.937-3.716v3.716H194.005z"/>
		</g>
	</g>
	<g>
		<path id="SVGID_4_" fill="#4DB7E8" d="M13.669,42.379L2.058,79.167h6.393l2.358-7.676h12.325l2.315,7.676h6.731L20.608,42.379
			H13.669z M12.323,65.867l4.796-16.604l4.416,16.604H12.323z"/>
	</g>
	<g>
		<path id="SVGID_3_" fill="#4DB7E8" d="M51.147,54.098c-1.068-0.958-2.134-1.683-3.199-2.159c-1.071-0.483-2.264-0.725-3.584-0.725
			c-1.522,0-3.044,0.364-4.58,1.093c-1.531,0.729-2.793,1.809-3.792,3.248c-1,1.44-1.694,3.036-2.089,4.783
			c-0.389,1.752-0.591,3.614-0.591,5.594c0,2.233,0.299,4.289,0.906,6.175c0.604,1.892,1.491,3.476,2.668,4.762
			c1.182,1.283,2.441,2.138,3.788,2.557c1.347,0.414,2.374,0.624,3.07,0.624c2.413,0,4.727-1.086,6.943-3.254l0.379,2.372h6.18
			V42.379h-6.099V54.098z M50.751,69.457c-0.267,1.054-0.756,2.034-1.475,2.944c-0.714,0.915-1.46,1.462-2.228,1.648
			c-0.775,0.187-1.367,0.277-1.787,0.277c-0.702,0-1.376-0.16-2.022-0.485c-0.644-0.325-1.254-0.867-1.827-1.622
			c-0.578-0.761-1.012-1.787-1.307-3.088c-0.297-1.296-0.444-2.641-0.444-4.032c0-1.609,0.185-2.923,0.55-3.944
			c0.337-0.896,0.816-1.697,1.429-2.411c0.619-0.713,1.194-1.166,1.727-1.368c0.531-0.199,0.94-0.325,1.223-0.373
			c0.278-0.043,0.544-0.069,0.796-0.069c0.674,0,1.306,0.135,1.892,0.395c0.592,0.265,1.225,0.751,1.895,1.462
			c0.672,0.711,1.173,1.678,1.491,2.901c0.324,1.223,0.487,2.588,0.487,4.1C51.147,67.186,51.019,68.408,50.751,69.457z"/>
	</g>
	<g>
		<g>
			<path fill="#FFFFFF" d="M99.921,58.994c-2.382,0-4.427,0.546-6.098,1.626c-0.68,0.444-1.267,0.958-1.756,1.53V59.59h-2.963
				v27.807h2.963V77.189c0.555,0.62,1.207,1.162,1.943,1.626c1.662,1.102,3.651,1.665,5.911,1.665c3.085,0,5.691-0.997,7.734-2.962
				c2.044-1.978,3.083-4.581,3.083-7.742c0-3.003-0.92-5.531-2.745-7.53C106.016,60.089,103.295,58.994,99.921,58.994z
				 M105.378,75.784c-1.439,1.297-3.273,1.956-5.457,1.956c-2.148,0-3.969-0.592-5.406-1.757c-1.773-1.431-2.672-3.595-2.672-6.433
				c0-2.001,0.556-3.726,1.652-5.115c1.426-1.793,3.663-2.701,6.646-2.701c2.245,0,4.099,0.724,5.51,2.15
				c1.409,1.436,2.125,3.431,2.125,5.928C107.776,72.362,106.97,74.375,105.378,75.784z"/>
			<path fill="#FFFFFF" d="M122.94,58.994c-3.22,0-5.724,1.006-7.441,2.987v-9.906h-2.966v27.812h2.966V68.139
				c0-1.756,0.59-3.23,1.75-4.393c1.336-1.335,3.255-2.012,5.696-2.012c2.461,0,4.206,0.533,5.194,1.585
				c0.828,0.894,1.245,2.326,1.245,4.263v12.305h2.964V67.506c0-2.194-0.397-3.924-1.185-5.141
				C129.701,60.128,126.935,58.994,122.94,58.994z"/>
			<path fill="#FFFFFF" d="M170.324,59.371l-0.453-0.13c-0.583-0.165-1.116-0.247-1.594-0.247c-3.27,0-5.727,1.093-7.324,3.252
				V59.59h-2.962v20.297h2.962v-10.93c0-1.922,0.577-3.559,1.704-4.872c1.234-1.414,2.94-2.13,5.069-2.13
				c1.045,0,1.535,0.101,1.752,0.185l0.846,0.318V59.371L170.324,59.371z"/>
			<path fill="#FFFFFF" d="M138.538,70.732h18.001l-0.014-0.633c-0.047-3.271-1.049-5.954-2.966-7.975
				c-1.997-2.077-4.737-3.131-8.156-3.131h-0.065c-3.433,0-6.244,1.09-8.369,3.239c-1.997,2.022-3.005,4.549-3.005,7.506
				c0,2.96,1.008,5.485,3.005,7.506c2.125,2.149,4.937,3.235,8.369,3.235l0,0l0.622-0.004v-0.009
				c5.083-0.174,8.45-2.639,10.011-7.333l0.277-0.824h-3.007l-0.158,0.396c-1.318,3.39-3.781,5.035-7.523,5.035l-0.217-0.005
				l-0.289,0.003c-2.521-0.059-4.555-0.89-6.034-2.479c-1.392-1.483-2.099-3.341-2.099-5.522s0.707-4.039,2.104-5.524
				c1.5-1.613,3.573-2.446,6.153-2.48l0.153,0.004c2.11,0.018,3.882,0.573,5.267,1.644c1.345,1.08,2.225,2.628,2.628,4.614h-14.688
				V70.732z"/>
			<path fill="#FFFFFF" d="M188.91,72.707c-1.325,3.39-3.786,5.035-7.528,5.035l-0.226-0.005l-0.277,0.003
				c-2.532-0.059-4.558-0.89-6.036-2.479c-1.392-1.483-2.099-3.341-2.099-5.522c0-2.177,0.707-4.039,2.099-5.524
				c1.505-1.613,3.577-2.446,6.153-2.48l0.156,0.004c2.103,0.018,3.877,0.573,5.267,1.644c1.344,1.08,2.227,2.628,2.628,4.614
				h-14.689v2.74h17.995l-0.008-0.637c-0.053-3.271-1.048-5.954-2.962-7.975c-1.999-2.075-4.744-3.131-8.157-3.131l-0.069,0.004
				c-3.43,0-6.248,1.089-8.369,3.235c-1.994,2.024-3.005,4.549-3.005,7.506c0,2.962,1.011,5.485,3.005,7.509
				c2.121,2.146,4.938,3.232,8.369,3.232l0,0l0.629-0.002v-0.007c5.073-0.174,8.443-2.643,10.009-7.337l0.272-0.822h-3.005
				L188.91,72.707z"/>
			<path fill="#FFFFFF" d="M83.359,53.76c-2.13-1.514-4.931-2.281-8.325-2.281l-0.093,0.002c-3.175,0.014-5.866,0.692-7.997,2.021
				c-2.385,1.5-3.591,3.566-3.591,6.173l0.003,0.451h0.014c0.098,1.829,0.772,3.261,2.013,4.247
				c1.109,0.887,2.907,1.626,5.351,2.198c0.369,0.089,0.753,0.172,1.15,0.25l3,0.594l2.691,0.503
				c2.338,0.425,3.94,0.993,4.762,1.687c0.672,0.577,1.017,1.475,1.017,2.706l0.002,0.336l0,0c-0.051,1.475-0.793,2.704-2.209,3.658
				c-1.495,1.006-3.583,1.528-6.2,1.544l-0.128,0.004c-2.736,0-4.886-0.585-6.382-1.743c-1.333-1.006-2.008-2.285-2.008-3.799
				v-0.473h-3.175v0.473c0,2.361,1.104,4.346,3.274,5.889c2.13,1.514,4.934,2.281,8.325,2.281l0.094-0.002
				c3.177-0.016,5.866-0.691,7.995-2.023c2.385-1.498,3.593-3.564,3.593-6.173v-0.444h-0.013c-0.099-1.834-0.778-3.265-2.015-4.254
				c-1.109-0.88-2.906-1.622-5.351-2.196c-0.368-0.085-0.757-0.167-1.153-0.249l-2.993-0.595l-2.697-0.503
				c-2.336-0.42-3.935-0.988-4.759-1.687c-0.675-0.577-1.017-1.475-1.017-2.704l-0.004-0.336l0,0
				c0.057-1.475,0.798-2.706,2.209-3.657c1.499-1.013,3.588-1.529,6.208-1.551h0.125c2.738,0,4.883,0.586,6.382,1.743
				c1.328,1.006,2.006,2.285,2.006,3.801v0.473h3.175V59.65C86.638,57.285,85.535,55.306,83.359,53.76z"/>
		</g>
	</g>
	<path fill="#FFFFFF" d="M127.903,12.503c-0.652,0-1.299,0.018-1.944,0.037c-15.147,0.486-28.864,6.598-39.143,16.32
		c-5.958,5.633-10.764,12.476-14.011,20.136h2.845c8.681-19.414,27.848-33.11,50.309-33.865
		c22.462,0.75,41.629,14.451,50.311,33.865h2.346h0.499h3.89C173.919,27.548,152.669,12.503,127.903,12.503z"/>
	<path fill="#4DB7E8" d="M120.66,19.003c19.153,2.264,35.198,13.948,42.789,29.993h2.23h0.469h3.694
		c-5.325-11.866-15.043-21.543-27.22-27.222c-5.329-1.864-11.04-2.961-17.005-3.148C123.946,18.678,122.29,18.809,120.66,19.003z"/>
</g>
</svg>
