<?xml version="1.0" encoding="utf-8"?>
<!-- Generator: Adobe Illustrator 16.0.0, SVG Export Plug-In . SVG Version: 6.00 Build 0)  -->
<!DOCTYPE svg PUBLIC "-//W3C//DTD SVG 1.1//EN" "http://www.w3.org/Graphics/SVG/1.1/DTD/svg11.dtd">
<svg version="1.1" id="Layer_1" xmlns="http://www.w3.org/2000/svg" xmlns:xlink="http://www.w3.org/1999/xlink" x="0px" y="0px"
	 width="10px" height="10px" viewBox="0 0 10 10" enable-background="new 0 0 10 10" xml:space="preserve">
<g>
	<g>
		<path fill="#00BEFF" d="M4.376,7.148c0.387,0.26,0.94,0.346,1.49,0.248C5.773,7.479,5.681,7.563,5.592,7.651
			C5.065,8.172,4.554,8.706,4.011,9.21C3.532,9.651,2.945,9.859,2.286,9.834C1.042,9.789,0.069,8.681,0.172,7.44
			C0.224,6.802,0.494,6.267,0.94,5.817C1.547,5.208,2.158,4.6,2.765,3.991c0.421-0.421,0.922-0.693,1.516-0.763
			c0.707-0.082,1.332,0.11,1.851,0.605c0.252,0.239,0.259,0.601,0.032,0.859C5.953,4.929,5.567,4.969,5.33,4.737
			C4.862,4.28,4.141,4.349,3.693,4.789C3.031,5.444,2.37,6.101,1.724,6.769C1.41,7.094,1.296,7.496,1.439,7.945
			C1.6,8.449,2.156,8.726,2.7,8.576C2.945,8.508,3.149,8.37,3.327,8.193C3.658,7.857,3.99,7.527,4.321,7.198
			C4.34,7.179,4.359,7.162,4.376,7.148z"/>
		<path fill="#00BEFF" d="M5.635,2.849C5.157,2.582,4.668,2.501,4.128,2.622c0.208-0.206,0.405-0.4,0.602-0.595
			c0.419-0.415,0.825-0.844,1.262-1.241c0.482-0.439,1.068-0.648,1.728-0.62c1.246,0.054,2.207,1.15,2.108,2.39
			c-0.053,0.643-0.325,1.18-0.774,1.63C8.452,4.792,7.844,5.394,7.242,6C6.819,6.426,6.32,6.702,5.721,6.771
			c-0.705,0.085-1.33-0.108-1.85-0.603C3.616,5.926,3.607,5.555,3.84,5.303c0.219-0.237,0.6-0.269,0.843-0.03
			c0.453,0.439,1.164,0.379,1.606-0.048c0.554-0.537,1.093-1.088,1.64-1.633c0.118-0.122,0.242-0.237,0.354-0.363
			c0.249-0.28,0.382-0.606,0.323-0.984C8.508,1.616,7.917,1.25,7.294,1.426C7.049,1.494,6.847,1.631,6.667,1.812
			C6.322,2.161,5.976,2.508,5.635,2.849z"/>
	</g>
</g>
</svg>
