<?xml version="1.0" encoding="utf-8"?>
<!-- Generator: Adobe Illustrator 16.0.0, SVG Export Plug-In . SVG Version: 6.00 Build 0)  -->
<!DOCTYPE svg PUBLIC "-//W3C//DTD SVG 1.1//EN" "http://www.w3.org/Graphics/SVG/1.1/DTD/svg11.dtd">
<svg version="1.1" id="Layer_1" xmlns="http://www.w3.org/2000/svg" xmlns:xlink="http://www.w3.org/1999/xlink" x="0px" y="0px"
	 width="40.265px" height="19.47px" viewBox="0 0 40.265 19.47" enable-background="new 0 0 40.265 19.47" xml:space="preserve">
<path fill="#F29220" d="M39.571,13.241c0,2.762-2.238,5-5,5H6.04c-2.762,0-5-2.238-5-5v-7.41c0-2.762,2.238-5,5-5h28.531
	c2.762,0,5,2.238,5,5V13.241z"/>
<g>
	<path fill="#FFFFFF" d="M7.127,14.361L8.955,4.046h3.779c2.168,0,2.989,1.146,2.989,2.462c0,0.217-0.015,0.403-0.062,0.65
		l-0.79,4.476c-0.279,1.58-1.007,2.727-3.717,2.727H7.127z M13.725,7.237c0.031-0.171,0.046-0.341,0.046-0.465
		c0-0.666-0.356-1.038-1.471-1.038h-1.735l-1.224,6.938h1.828c1.348,0,1.688-0.51,1.874-1.563L13.725,7.237z"/>
	<path fill="#FFFFFF" d="M18.37,4.046h1.92l-1.812,10.315h-1.92L18.37,4.046z"/>
	<path fill="#FFFFFF" d="M21.111,12.084c0-0.217,0.016-0.449,0.062-0.713l0.79-4.475c0.356-1.998,1.362-3.005,4.12-3.005
		c1.006,0,2.184,0.186,3.144,0.496l-0.403,1.642c-0.959-0.248-2.105-0.403-2.941-0.403c-1.41,0-1.844,0.403-2.061,1.627
		l-0.682,3.857c-0.047,0.246-0.062,0.494-0.062,0.664c0,0.637,0.31,1.039,1.518,1.039c0.511,0,1.131-0.047,1.72-0.17l0.557-3.053
		h1.813l-0.774,4.338c-0.914,0.371-2.215,0.588-3.516,0.588C22.04,14.516,21.111,13.539,21.111,12.084z"/>
	<path fill="#FFFFFF" d="M31.905,4.046h1.92l-1.813,10.315h-1.92L31.905,4.046z"/>
</g>
</svg>
