<svg width="96" height="96" xmlns="http://www.w3.org/2000/svg">
 <title/>

 <g>
  <title>background</title>
  <rect fill="none" id="canvas_background" height="402" width="582" y="-1" x="-1"/>
 </g>
 <g>
  <title>Layer 1</title>
  <path fill="#ffffff" id="svg_2" d="m90,54a5.9966,5.9966 0 0 0 -6,6l0,18l-72,0l0,-18a6,6 0 0 0 -12,0l0,24a5.9966,5.9966 0 0 0 6,6l84,0a5.9966,5.9966 0 0 0 6,-6l0,-24a5.9966,5.9966 0 0 0 -6,-6z"/>
  <path fill="#ffffff" id="svg_3" d="m43.7578,64.2422a5.9979,5.9979 0 0 0 8.4844,0l18,-18a5.9994,5.9994 0 0 0 -8.4844,-8.4844l-7.7578,7.7578l0,-33.5156a6,6 0 0 0 -12,0l0,33.5156l-7.7578,-7.7578a5.9994,5.9994 0 0 0 -8.4844,8.4844l18,18z"/>
 </g>
</svg>