<?xml version="1.0" encoding="utf-8"?>
<!-- Generator: Adobe Illustrator 16.0.0, SVG Export Plug-In . SVG Version: 6.00 Build 0)  -->
<!DOCTYPE svg PUBLIC "-//W3C//DTD SVG 1.1//EN" "http://www.w3.org/Graphics/SVG/1.1/DTD/svg11.dtd">
<svg version="1.1" id="Layer_1" xmlns="http://www.w3.org/2000/svg" xmlns:xlink="http://www.w3.org/1999/xlink" x="0px" y="0px"
	 width="24px" height="26px" viewBox="3 3 26 26" enable-background="new 0 0 0 0" xml:space="preserve">
<g>
	<path fill="#202733" d="M15.854,26.373c-2.531,0-4.91-0.985-6.699-2.775c-1.789-1.789-2.775-4.167-2.775-6.698
		c0-2.532,0.986-4.911,2.775-6.7c0.195-0.194,0.51-0.194,0.705,0l12.693,12.693c0.193,0.195,0.193,0.511,0,0.705
		C20.762,25.388,18.383,26.373,15.854,26.373 M9.516,11.268c-1.383,1.553-2.139,3.533-2.139,5.632c0,2.264,0.881,4.394,2.482,5.993
		c1.6,1.602,3.729,2.483,5.994,2.483c2.098,0,4.078-0.757,5.631-2.141L9.516,11.268z"/>
	<path fill="#202733" d="M17.264,18.809c-0.127,0-0.256-0.05-0.352-0.146c-0.197-0.195-0.197-0.51,0-0.706
		c0.582-0.583,0.582-1.531,0-2.114c-0.584-0.584-1.533-0.584-2.119,0c-0.191,0.193-0.508,0.193-0.703,0
		c-0.193-0.195-0.193-0.511,0-0.705c0.973-0.973,2.553-0.973,3.525,0c0.973,0.971,0.973,2.554,0,3.525
		C17.518,18.759,17.391,18.809,17.264,18.809"/>
	<path fill="#202733" d="M9.529,18.831c-0.227,0-0.434-0.156-0.486-0.388c-0.318-1.413-0.197-2.867,0.354-4.204
		c0.105-0.255,0.395-0.375,0.65-0.271c0.256,0.104,0.377,0.396,0.271,0.651c-0.471,1.146-0.574,2.392-0.303,3.604
		c0.063,0.27-0.107,0.536-0.375,0.597C9.604,18.828,9.566,18.831,9.529,18.831"/>
	<path fill="#202733" d="M6.654,26.597c-0.129,0-0.258-0.049-0.354-0.146c-0.195-0.195-0.195-0.51,0-0.705l2.854-2.853
		c0.195-0.195,0.51-0.195,0.705,0c0.195,0.194,0.195,0.51,0,0.704l-2.854,2.854C6.908,26.548,6.781,26.597,6.654,26.597"/>
	<path fill="#202733" d="M22.359,16.874c-0.275,0-0.498-0.223-0.498-0.499c0-2.75-2.236-4.986-4.986-4.986
		c-0.275,0-0.498-0.223-0.498-0.498c0-0.276,0.223-0.499,0.498-0.499c3.299,0,5.984,2.685,5.984,5.983
		C22.859,16.651,22.635,16.874,22.359,16.874"/>
	<path fill="#202733" d="M26.348,16.874c-0.273,0-0.498-0.223-0.498-0.499c0-4.949-4.025-8.975-8.975-8.975
		c-0.275,0-0.498-0.224-0.498-0.499c0-0.276,0.223-0.498,0.498-0.498c5.498,0,9.971,4.473,9.971,9.972
		C26.846,16.651,26.623,16.874,26.348,16.874"/>
</g>
</svg>
