<?xml version="1.0" encoding="UTF-8" standalone="no"?>
<svg width="9px" height="16px" viewBox="0 0 9 16" version="1.1" xmlns="http://www.w3.org/2000/svg" xmlns:xlink="http://www.w3.org/1999/xlink">
    <!-- Generator: Sketch 40.1 (33804) - http://www.bohemiancoding.com/sketch -->
    <title>IconMobile</title>
    <desc>Created with Sketch.</desc>
    <defs></defs>
    <g id="Symbols" stroke="none" stroke-width="1" fill="none" fill-rule="evenodd">
        <g id="IconMobile" fill="#9B9B9B">
            <path d="M1,2.04998803 L8,2.04998803 L8,13.8833214 L1,13.8833214 L1,2.04998803 Z M7,0.327765807 L2,0.327765807 C0.8955,0.327765807 0,1.22326581 0,2.32776581 L0,14.3277658 C0,15.4322658 0.8955,16.3277658 2,16.3277658 L7,16.3277658 C8.1045,16.3277658 9,15.4322658 9,14.3277658 L9,2.32776581 C9,1.22326581 8.1045,0.327765807 7,0.327765807 L7,0.327765807 Z M4.9777778,15.2610992 C4.9777778,14.8685658 4.65920002,14.549988 4.26666668,14.549988 C3.87413334,14.549988 3.55555556,14.8685658 3.55555556,15.2610992 C3.55555556,15.6536325 3.87413334,15.9722103 4.26666668,15.9722103 C4.65920002,15.9722103 4.9777778,15.6536325 4.9777778,15.2610992 Z" id="Fill-145"></path>
        </g>
    </g>
</svg>