<?xml version="1.0" encoding="utf-8"?>
<!-- Generator: Adobe Illustrator 16.0.0, SVG Export Plug-In . SVG Version: 6.00 Build 0)  -->
<!DOCTYPE svg PUBLIC "-//W3C//DTD SVG 1.1//EN" "http://www.w3.org/Graphics/SVG/1.1/DTD/svg11.dtd">
<svg version="1.1" id="Layer_1" xmlns="http://www.w3.org/2000/svg" xmlns:xlink="http://www.w3.org/1999/xlink" x="0px" y="0px"
	 width="21.271px" height="22.5px" viewBox="9.341 -1.473 21.271 22.5" enable-background="new 9.341 -1.473 21.271 22.5"
	 xml:space="preserve">
<g>
	<path fill="#F29220" d="M29.326,10.111c-0.075-0.226-0.057-0.533,0.035-0.754c0.278-0.666,0.62-1.305,0.923-1.96
		c0.366-0.792,0.142-1.459-0.624-1.872c-0.637-0.342-1.29-0.653-1.914-1.017c-0.169-0.099-0.331-0.317-0.372-0.51
		c-0.146-0.686-0.247-1.383-0.352-2.078c-0.155-1.046-0.702-1.444-1.758-1.268c-0.675,0.112-1.348,0.241-2.025,0.314
		c-0.194,0.021-0.456-0.073-0.602-0.208c-0.577-0.528-1.11-1.104-1.678-1.643c-0.542-0.516-1.046-0.521-1.613-0.031
		c-0.458,0.396-0.933,0.781-1.346,1.223c-0.521,0.559-1.064,0.846-1.853,0.579c-0.456-0.154-0.958-0.176-1.44-0.248
		c-1.04-0.153-1.5,0.189-1.66,1.22c-0.11,0.715-0.211,1.432-0.359,2.138c-0.039,0.19-0.199,0.413-0.369,0.511
		c-0.693,0.397-1.421,0.737-2.119,1.127C9.502,6.025,9.319,6.67,9.674,7.379c0.298,0.593,0.578,1.197,0.923,1.763
		c0.25,0.41,0.28,0.748,0.036,1.177c-0.337,0.593-0.612,1.221-0.89,1.845c-0.315,0.714-0.087,1.374,0.587,1.744
		c0.393,0.216,0.781,0.453,1.198,0.611c0.84,0.318,1.348,0.828,1.329,1.791c-0.008,0.404,0.125,0.809,0.182,1.215
		c0.152,1.084,0.698,1.475,1.79,1.286c0.654-0.112,1.308-0.24,1.967-0.306c0.212-0.021,0.492,0.082,0.652,0.226
		c0.551,0.498,1.057,1.045,1.591,1.563c0.626,0.607,1.151,0.604,1.783-0.012c0.478-0.465,0.974-0.912,1.403-1.419
		c0.328-0.388,0.686-0.43,1.135-0.343c0.709,0.136,1.424,0.243,1.99,0.338c0.886,0.031,1.294-0.336,1.427-1.147
		c0.12-0.732,0.216-1.47,0.37-2.195c0.045-0.208,0.21-0.451,0.391-0.557c0.657-0.385,1.348-0.71,2.019-1.07
		c0.74-0.396,0.904-0.878,0.593-1.651C29.866,11.533,29.568,10.832,29.326,10.111z"/>
	<path fill="#FFFFFF" d="M23.638,14.883c-1.087,0.331-1.89,0.308-2.431-0.983c-0.717-1.709-1.646-3.33-2.74-4.952
		c0,1.973,0,3.946,0,6.007c-0.797,0-1.432,0-2.154,0c0-3.464,0-6.916,0-10.349c1.433-0.471,2.297-0.135,2.828,1.356
		c0.572,1.626,1.427,3.148,2.159,4.715c0.091-0.008,0.181-0.021,0.274-0.03c0-2.002,0-4.006,0-6.106c0.717,0,1.344,0,2.063,0
		C23.638,7.987,23.638,11.395,23.638,14.883z"/>
</g>
</svg>
