<?xml version="1.0" encoding="utf-8"?>
<!-- Generator: Adobe Illustrator 16.0.0, SVG Export Plug-In . SVG Version: 6.00 Build 0)  -->
<!DOCTYPE svg PUBLIC "-//W3C//DTD SVG 1.1//EN" "http://www.w3.org/Graphics/SVG/1.1/DTD/svg11.dtd">
<svg version="1.1" id="Layer_1" xmlns="http://www.w3.org/2000/svg" xmlns:xlink="http://www.w3.org/1999/xlink" x="0px" y="0px"
	 width="33px" height="33px" viewBox="0 0 33 33" enable-background="new 0 0 33 33" xml:space="preserve">
<g id="Search_2_">
	<path fill="#9D9D9C" d="M27.042,25.768l-5.162-5.161c-0.059-0.06-0.117-0.06-0.176-0.118c2.932-3.52,2.756-8.856-0.586-12.141
		c-3.52-3.52-9.268-3.52-12.787,0c-1.7,1.7-2.638,3.988-2.638,6.393s0.938,4.692,2.638,6.394c1.701,1.7,3.988,2.639,6.395,2.639
		c2.111,0,4.164-0.763,5.746-2.053c0.059,0.059,0.059,0.117,0.119,0.176l5.16,5.161c0.176,0.176,0.41,0.234,0.645,0.234
		c0.236,0,0.471-0.059,0.646-0.234C27.394,26.646,27.394,26.119,27.042,25.768z M14.726,21.954c-1.936,0-3.754-0.762-5.162-2.11
		c-1.35-1.35-2.111-3.227-2.111-5.162s0.761-3.753,2.111-5.161c1.408-1.407,3.285-2.11,5.162-2.11s3.752,0.703,5.16,2.11
		c2.816,2.815,2.816,7.448,0,10.264C18.478,21.192,16.662,21.954,14.726,21.954z"/>
</g>
</svg>
