<?xml version="1.0" encoding="UTF-8" standalone="no"?>
<svg width="16px" height="17px" viewBox="0 0 16 17" version="1.1" xmlns="http://www.w3.org/2000/svg" xmlns:xlink="http://www.w3.org/1999/xlink">
    <!-- Generator: Sketch 40.1 (33804) - http://www.bohemiancoding.com/sketch -->
    <title>IconSMS</title>
    <desc>Created with Sketch.</desc>
    <defs></defs>
    <g id="Ranking-Report" stroke="none" stroke-width="1" fill="none" fill-rule="evenodd">
        <g id="Advertiser&gt;Brand&gt;Creatives-Copy" transform="translate(-1198.000000, -882.000000)" fill="#9B9B9B">
            <g id="Group-6-Copy" transform="translate(269.000000, 836.327766)">
                <g id="IconSMS" transform="translate(929.000000, 46.000000)">
                    <g id="SMS" transform="translate(0.000000, 0.327766)">
                        <text font-family="Avenir-Black, Avenir" font-size="6" font-weight="700">
                            <tspan x="2" y="9">SMS</tspan>
                        </text>
                        <path d="M8,13 C7.416,13 6.852,12.932 6.31,12.8165 L3.956,14.2315 L3.9875,11.912 C2.183,10.827 1,9.033 1,7 C1,3.6865 4.134,1 8,1 C11.866,1 15,3.6865 15,7 C15,10.314 11.866,13 8,13 L8,13 Z M8,0 C3.582,0 0,3.1345 0,7 C0,9.2095 1.1725,11.177 3,12.4595 L3,16 L6.5045,13.8735 C6.9895,13.9535 7.4885,14 8,14 C12.418,14 16,10.866 16,7 C16,3.1345 12.418,0 8,0 L8,0 Z" id="Fill-192"></path>
                    </g>
                </g>
            </g>
        </g>
    </g>
</svg>