<?xml version="1.0" encoding="UTF-8" standalone="no"?>
<svg width="16px" height="17px" viewBox="0 0 16 17" version="1.1" xmlns="http://www.w3.org/2000/svg" xmlns:xlink="http://www.w3.org/1999/xlink">
    <!-- Generator: Sketch 40.1 (33804) - http://www.bohemiancoding.com/sketch -->
    <title>IconPhone Copy 5</title>
    <desc>Created with Sketch.</desc>
    <defs></defs>
    <g id="Ranking-Report" stroke="none" stroke-width="1" fill="none" fill-rule="evenodd">
        <g id="Advertiser&gt;Brand&gt;Creatives-Copy" transform="translate(-1153.000000, -882.000000)" fill="#9B9B9B">
            <g id="Group-6-Copy" transform="translate(269.000000, 836.327766)">
                <g id="IconPhone" transform="translate(884.000000, 46.000000)">
                    <path d="M14.7826417,4.32611268 C13.9077017,5.98849858 11.9648204,8.54744058 10.3384614,10.2350453 C8.46351658,12.2628473 4.04352585,15.0358923 4.04352585,15.0358923 C3.70229927,15.2149976 2.75530545,15.2283791 2.49488215,14.9684704 L1.55252036,14.028682 C1.35797489,13.7034102 1.2704809,13.3266714 1.55252036,13.0888936 L3.4377586,11.6786962 C3.75685435,11.4630493 4.11969709,11.4193023 4.38012039,11.6786962 L5.54173183,12.836705 C5.8150219,12.6447329 10.1783989,9.78522326 12.6055852,5.84850819 L11.4161816,4.66219256 C11.1557583,4.4027986 11.2000199,4.04047053 11.4161816,3.72188945 L12.8299816,1.84231258 C13.0904049,1.49490996 13.5124347,1.58240395 13.7723434,1.84231258 L14.7152198,2.78210102 C15.0847533,3.12898897 14.9777018,3.93753641 14.7826417,4.32611268 L14.7826417,4.32611268 Z M15.5227379,2.11097061 L14.0415161,0.63386612 C13.6328676,0.22573237 12.9694573,0.22573237 12.5602942,0.63386612 L10.3384614,3.58807511 C9.99929351,4.08782022 9.92981299,4.65704585 10.3384614,5.0651796 L11.2453109,5.96945577 C10.5731512,6.87012924 9.76614775,7.85212066 8.85775422,8.75794084 C7.83047179,9.78213524 6.68790316,10.7131743 5.66062073,11.4779747 L4.78413678,10.6045788 C4.37548836,10.196445 3.80471871,10.2654109 3.30291492,10.6045788 L0.340471202,12.8202355 C-0.156185884,13.1624914 -0.0686918898,13.8892063 0.340471202,14.29734 L1.82169306,15.7739298 C2.64001924,16.5901973 3.70384328,16.3287447 4.78413678,15.7739298 C4.78413678,15.7739298 8.05383881,13.9437614 10.853132,11.1521883 C13.4861865,8.52633909 15.5227379,5.0651796 15.5227379,5.0651796 C15.9473411,3.90048013 16.3410641,2.92672344 15.5227379,2.11097061 L15.5227379,2.11097061 Z" id="Fill-179"></path>
                </g>
            </g>
        </g>
    </g>
</svg>