<?xml version="1.0" encoding="UTF-8" standalone="no"?>
<svg width="16px" height="17px" viewBox="0 0 16 17" version="1.1" xmlns="http://www.w3.org/2000/svg" xmlns:xlink="http://www.w3.org/1999/xlink">
    <!-- Generator: Sketch 40.1 (33804) - http://www.bohemiancoding.com/sketch -->
    <title>IconURL</title>
    <desc>Created with Sketch.</desc>
    <defs></defs>
    <g id="Ranking-Report" stroke="none" stroke-width="1" fill="none" fill-rule="evenodd">
        <g id="Advertiser&gt;Brand&gt;Creatives-Copy" transform="translate(-1224.000000, -882.000000)" fill="#9B9B9B">
            <g id="Group-6-Copy" transform="translate(269.000000, 836.327766)">
                <g id="IconURL" transform="translate(955.000000, 46.000000)">
                    <path d="M9.66220012,6.67331487 C9.45813826,6.46976962 9.12750638,6.46976962 8.92344451,6.67331487 L6.33779988,9.2589595 C6.13373801,9.46353798 6.13373801,9.79365325 6.33779988,9.99823173 C6.54186174,10.201777 6.87249362,10.201777 7.07655549,9.99823173 L9.66220012,7.41258709 C9.86626199,7.20800861 9.86626199,6.87789335 9.66220012,6.67331487 L9.66220012,6.67331487 Z M15.3878144,1.6781904 L14.6490588,0.9399514 C13.8328113,0.123703943 12.5097672,0.123703943 11.6940364,0.9399514 L7.99974169,4.63372945 C7.45419909,5.17927205 7.28216719,5.94954102 7.46608117,6.6454178 L12.4322754,1.6781904 C12.8403991,1.27058328 13.5021795,1.27058328 13.9103032,1.6781904 L14.6490588,2.41746262 C15.0571825,2.82558635 15.0571825,3.48685011 14.6490588,3.89497384 L9.682348,8.86168463 C10.3782248,9.04508201 11.1484938,8.87305011 11.6940364,8.3275075 L15.3878144,4.63372945 C16.2040619,3.81799861 16.2040619,2.49443786 15.3878144,1.6781904 L15.3878144,1.6781904 Z M3.56720803,14.976308 C3.1590843,15.3849483 2.49730393,15.3849483 2.0891802,14.976308 L1.3509412,14.238069 C0.942817474,13.8299453 0.942817474,13.1681649 1.3509412,12.7600412 L6.317652,7.79384698 C5.62177521,7.609933 4.85150625,7.78248151 4.30596364,8.3275075 L0.612185593,12.0218022 C-0.204061864,12.837533 -0.204061864,14.1605771 0.612185593,14.976308 L1.3509412,15.7155802 C2.16667205,16.5318277 3.48971619,16.5318277 4.30596364,15.7155802 L7.99974169,12.0218022 C8.5452843,11.4762596 8.71783281,10.7059906 8.53391883,10.0101138 L3.56720803,14.976308 L3.56720803,14.976308 Z" id="Fill-101"></path>
                </g>
            </g>
        </g>
    </g>
</svg>