<?xml version="1.0" encoding="utf-8"?>
<!-- Generator: Adobe Illustrator 16.0.0, SVG Export Plug-In . SVG Version: 6.00 Build 0)  -->
<!DOCTYPE svg PUBLIC "-//W3C//DTD SVG 1.1//EN" "http://www.w3.org/Graphics/SVG/1.1/DTD/svg11.dtd">
<svg version="1.1" id="Layer_1" xmlns="http://www.w3.org/2000/svg" xmlns:xlink="http://www.w3.org/1999/xlink" x="0px" y="0px"
	 width="33px" height="33px" viewBox="0 0 33 33" enable-background="new 0 0 33 33" xml:space="preserve">
<g>
	<path fill="#FFFFFF" d="M6.499,25.555c-0.303,0-0.578-0.276-0.578-0.579V8.024c0-0.303,0.275-0.579,0.578-0.579h20
		c0.305,0,0.58,0.276,0.58,0.579v16.951c0,0.303-0.275,0.579-0.58,0.579H6.499z M7.079,24.395h18.898V9.133h-0.6l-0.034,0.212
		l-8.384,8.617c-0.127,0.126-0.288,0.203-0.432,0.203c-0.143,0-0.303-0.077-0.432-0.206L7.564,9.191H7.438l0.24,0.241h-0.6V24.395z
		 M16.47,16.726l7.926-8.12H8.606L16.47,16.726z"/>
</g>
</svg>
