<svg width="33" height="33" xmlns="http://www.w3.org/2000/svg" clip-rule="evenodd">

 <g>
  <title>background</title>
  <rect fill="none" id="canvas_background" height="35" width="35" y="-1" x="-1"/>
 </g>
 <g>
  <title>Layer 1</title>
  <path fill="#ffffff" stroke="null" id="svg_1" fill-rule="nonzero" d="m26.817714,23.889947c-0.482379,0.463909 -1.126719,0.762941 -1.825498,0.775968c-5.660813,0.034997 -11.322015,0.034997 -16.982828,0c-1.401447,-0.026054 -2.661156,-1.24046 -2.687987,-2.687987c-0.023526,-3.651774 -0.023526,-7.303936 0,-10.95571c0.026054,-1.402031 1.239877,-2.660961 2.687987,-2.687987c5.660813,-0.035192 11.322015,-0.035192 16.982828,0c1.406503,0.026248 2.661156,1.240071 2.687987,2.687987c0.021387,3.651968 0.021387,7.303742 0,10.95571c-0.009916,0.540319 -0.195402,1.058279 -0.502406,1.493024c0.012638,0.103242 -0.043552,0.183153 -0.101881,0.261119c-0.065134,0.087493 -0.157099,0.144267 -0.258202,0.157877zm-7.545418,-7.091425l-0.437466,0.422301c-1.299955,1.240265 -3.506341,1.292956 -4.861514,-0.001361l-0.095465,-0.09216l-6.908661,6.417338c0.302143,0.208817 0.663004,0.336363 1.049725,0.343557c5.654591,0.034997 11.309183,0.034997 16.963774,0c0.429883,-0.007972 0.841879,-0.170126 1.173187,-0.435911l-6.88358,-6.653764zm-12.811734,-6.840805c-0.219511,0.307199 -0.35425,0.677198 -0.361639,1.074223c-0.023332,3.645358 -0.023332,7.29091 0,10.936267c0.006805,0.366888 0.12599,0.719778 0.325669,1.020949l6.893301,-6.403145l-6.857332,-6.628294zm20.001345,-0.10052l-6.629849,6.400812l6.827779,6.599713c0.14835,-0.265591 0.236815,-0.568123 0.242842,-0.88932c0.021193,-3.645552 0.021193,-7.291104 0,-10.936656c-0.008166,-0.431828 -0.173042,-0.843824 -0.440772,-1.174548zm-0.597676,-0.503961c-0.265202,-0.147766 -0.565595,-0.235454 -0.881543,-0.241287c-5.646037,-0.034997 -11.292267,-0.000194 -16.938304,-0.000194c-0.365333,0.002333 -0.717639,0.11588 -1.019782,0.309726c2.503279,2.421813 4.994503,4.85607 7.513337,7.261745c1.01395,0.943761 2.713457,0.973314 3.758321,-0.023526l7.567972,-7.306464z"/>
 </g>
</svg>