<?xml version="1.0" encoding="utf-8"?>
<!-- Generator: Adobe Illustrator 16.0.0, SVG Export Plug-In . SVG Version: 6.00 Build 0)  -->
<!DOCTYPE svg PUBLIC "-//W3C//DTD SVG 1.1//EN" "http://www.w3.org/Graphics/SVG/1.1/DTD/svg11.dtd">
<svg version="1.1" id="Layer_1" xmlns="http://www.w3.org/2000/svg" xmlns:xlink="http://www.w3.org/1999/xlink" x="0px" y="0px"
	 width="33px" height="33px" viewBox="0 0 33 33" enable-background="new 0 0 33 33" xml:space="preserve">
<g>
	<g>
		<g>
			<path fill="#FFFFFF" d="M26.199,22.698H6.803c-0.668,0-1.211-0.544-1.211-1.21V7.049c0-0.666,0.543-1.209,1.211-1.209h19.396
				c0.666,0,1.207,0.543,1.207,1.209v14.439C27.406,22.154,26.865,22.698,26.199,22.698 M6.803,6.832
				c-0.121,0-0.219,0.099-0.219,0.217v14.439c0,0.12,0.098,0.218,0.219,0.218h19.396c0.119,0,0.217-0.098,0.217-0.218V7.049
				c0-0.118-0.098-0.217-0.217-0.217H6.803z"/>
			<path fill="#FFFFFF" d="M26.707,18.73H6.305c-0.268,0-0.484-0.221-0.484-0.494c0-0.274,0.217-0.497,0.484-0.497h20.402
				c0.268,0,0.484,0.223,0.484,0.497C27.191,18.51,26.975,18.73,26.707,18.73"/>
			<path fill="#FFFFFF" d="M5.096,27.16c-0.168,0-0.332-0.086-0.424-0.241c-0.143-0.235-0.066-0.538,0.168-0.68l2.48-1.487
				c0.076-0.048,0.166-0.07,0.256-0.07h11.47c-0.592-0.497-1.061-1.367-1.061-2.479c0-0.275,0.223-0.496,0.498-0.496
				c0.271,0,0.494,0.221,0.494,0.496c0,1.997,2.006,2.472,2.092,2.489c0.246,0.057,0.412,0.289,0.385,0.54
				c-0.029,0.251-0.24,0.44-0.492,0.44H7.713L5.352,27.09C5.272,27.138,5.186,27.16,5.096,27.16"/>
			<path fill="#FFFFFF" d="M27.902,27.16c-0.086,0-0.174-0.022-0.254-0.07l-2.361-1.418h-13.25c-0.252,0-0.465-0.189-0.492-0.44
				s0.139-0.483,0.383-0.54c0.084-0.018,2.094-0.509,2.094-2.489c0-0.275,0.223-0.496,0.494-0.496c0.273,0,0.498,0.221,0.498,0.496
				c0,1.112-0.471,1.982-1.063,2.479h11.472c0.09,0,0.178,0.022,0.256,0.07l2.48,1.487c0.234,0.142,0.311,0.444,0.168,0.68
				C28.234,27.074,28.072,27.16,27.902,27.16"/>
			<path fill="#FFFFFF" d="M16.997,21.209c-0.549,0-0.992-0.443-0.992-0.991c0-0.547,0.443-0.991,0.992-0.991
				c0.546,0,0.99,0.444,0.99,0.991C17.986,20.766,17.543,21.209,16.997,21.209"/>
		</g>
	</g>
	<g>
		<path fill="#FFFFFF" d="M16.293,12.595c0,2.004-1.215,3.147-2.863,3.147c-1.686,0-2.748-1.285-2.748-3.041
			c0-1.835,1.152-3.13,2.836-3.13C15.264,9.571,16.293,10.893,16.293,12.595z M11.834,12.684c0,1.215,0.611,2.181,1.658,2.181
			c1.055,0,1.648-0.975,1.648-2.225c0-1.126-0.559-2.19-1.648-2.19C12.411,10.449,11.834,11.451,11.834,12.684z"/>
		<path fill="#FFFFFF" d="M17.232,15.645V9.669h1.24l1.543,2.563c0.398,0.665,0.744,1.356,1.02,2.004h0.018
			c-0.07-0.798-0.098-1.569-0.098-2.482V9.669h1.01v5.976H20.84l-1.561-2.624c-0.381-0.656-0.779-1.392-1.072-2.065l-0.027,0.009
			c0.045,0.771,0.053,1.56,0.053,2.544v2.137H17.232z"/>
	</g>
</g>
</svg>
