<?xml version="1.0" encoding="utf-8"?>
<!-- Generator: Adobe Illustrator 16.0.0, SVG Export Plug-In . SVG Version: 6.00 Build 0)  -->
<!DOCTYPE svg PUBLIC "-//W3C//DTD SVG 1.1//EN" "http://www.w3.org/Graphics/SVG/1.1/DTD/svg11.dtd">
<svg version="1.1" id="Layer_1" xmlns="http://www.w3.org/2000/svg" xmlns:xlink="http://www.w3.org/1999/xlink" x="0px" y="0px"
	 width="33px" height="33px" viewBox="0 0 33 33" enable-background="new 0 0 33 33" xml:space="preserve">
<path fill="#FFFFFF" d="M8.154,27.041c-0.445,0-0.846-0.193-1.16-0.559C6.7,26.14,6.595,25.696,6.697,25.233
	c0.582-2.522,2.538-6.05,6.135-7.686l0.268-0.121l-0.163-0.245c-0.642-0.964-0.954-1.82-0.954-2.617v-4.518
	c0-2.805,2.282-5.087,5.086-5.087h0.705c2.805,0,5.086,2.282,5.086,5.087v4.518c0,0.834-0.357,1.781-1.007,2.667l-0.177,0.242
	l0.27,0.13c3.51,1.7,5.503,5.146,6.143,7.581c0.136,0.407,0.038,0.788-0.31,1.252c-0.287,0.385-0.728,0.604-1.208,0.604H8.154z
	 M13.871,18.494c-4.647,1.786-5.853,6.826-5.902,7.04l-0.07,0.306h19.053l-0.081-0.313c-0.054-0.209-1.375-5.128-5.955-6.973
	l-0.145-0.059L20.655,18.6c-1.093,0.979-2.393,1.637-3.233,1.637c-0.858,0-2.151-0.665-3.293-1.694l-0.114-0.103L13.871,18.494z
	 M13.184,10.047v4.459c0,0.717,0.377,1.525,1.061,2.278l0.711,0.713c0.387,0.322,0.744,0.618,1.046,0.8
	c0.533,0.356,1.054,0.563,1.42,0.563c0.394,0,0.898-0.18,1.422-0.507c0.26-0.157,0.649-0.407,0.981-0.739
	c0.142-0.102,0.312-0.283,0.479-0.465c0.075-0.082,0.15-0.164,0.226-0.239c0.492-0.541,1.069-1.379,1.069-2.346v-4.518
	c0-2.11-1.717-3.827-3.826-3.827h-0.705c-2.026,0-3.689,1.583-3.818,3.577h-0.008L13.184,10.047z"/>
</svg>
