<?xml version="1.0" encoding="utf-8"?>
<!-- Generator: Adobe Illustrator 16.0.0, SVG Export Plug-In . SVG Version: 6.00 Build 0)  -->
<!DOCTYPE svg PUBLIC "-//W3C//DTD SVG 1.1//EN" "http://www.w3.org/Graphics/SVG/1.1/DTD/svg11.dtd">
<svg version="1.1" id="Layer_1" xmlns="http://www.w3.org/2000/svg" xmlns:xlink="http://www.w3.org/1999/xlink" x="0px" y="0px"
	 width="33px" height="33px" viewBox="0 0 33 33" enable-background="new 0 0 33 33" xml:space="preserve">
<g>
	<path fill="#FFFFFF" d="M25.447,25.244H7.331c-0.765,0-1.388-0.622-1.388-1.387V11.571c0-0.269,0.218-0.486,0.486-0.486
		s0.485,0.218,0.485,0.486v12.286c0,0.229,0.187,0.415,0.416,0.415h18.116c0.228,0,0.414-0.187,0.414-0.415V11.571
		c0-0.269,0.218-0.486,0.485-0.486c0.269,0,0.486,0.218,0.486,0.486v12.286C26.833,24.622,26.212,25.244,25.447,25.244"/>
	<path fill="#FFFFFF" d="M7.932,12.614H6.608c-0.243,0-0.441-0.219-0.441-0.486s0.198-0.486,0.441-0.486h1.324
		c0.244,0,0.441,0.219,0.441,0.486S8.176,12.614,7.932,12.614"/>
	<path fill="#FFFFFF" d="M26.335,12.614H12.959c-0.264,0-0.478-0.219-0.478-0.486s0.214-0.486,0.478-0.486h13.376
		c0.264,0,0.478,0.219,0.478,0.486S26.599,12.614,26.335,12.614"/>
	<path fill="#FFFFFF" d="M26.043,23.786H6.64c-0.261,0-0.473-0.217-0.473-0.485c0-0.27,0.212-0.486,0.473-0.486h19.404
		c0.262,0,0.474,0.217,0.474,0.486C26.517,23.569,26.305,23.786,26.043,23.786"/>
	<path fill="#FFFFFF" d="M10.315,15.043c-1.607,0-2.914-1.308-2.914-2.915c0-0.268,0.219-0.486,0.485-0.486
		c0.269,0,0.486,0.219,0.486,0.486c0,1.072,0.872,1.943,1.942,1.943c1.072,0,1.945-0.871,1.945-1.943
		c0-0.268,0.217-0.486,0.485-0.486c0.267,0,0.485,0.219,0.485,0.486C13.231,13.735,11.923,15.043,10.315,15.043"/>
	<path fill="#FFFFFF" d="M24.142,19.415h-5.344c-0.269,0-0.485-0.219-0.485-0.486c0-0.269,0.217-0.486,0.485-0.486h5.344
		c0.269,0,0.485,0.218,0.485,0.486C24.627,19.196,24.41,19.415,24.142,19.415"/>
	<path fill="#FFFFFF" d="M24.142,21.358h-5.344c-0.269,0-0.485-0.217-0.485-0.486c0-0.268,0.217-0.485,0.485-0.485h5.344
		c0.269,0,0.485,0.218,0.485,0.485C24.627,21.142,24.41,21.358,24.142,21.358"/>
	<path fill="#FFFFFF" d="M25.74,12.614c-0.267,0-0.486-0.219-0.486-0.486v-1.981L8.252,8.769v3.359c0,0.268-0.218,0.486-0.486,0.486
		c-0.267,0-0.485-0.219-0.485-0.486V8.242c0-0.137-0.015-0.266,0.086-0.358c0.1-0.091,0.198-0.136,0.332-0.127l18.028,1.457
		c0.253,0.021,0.5,0.231,0.5,0.484v2.43C26.227,12.396,26.009,12.614,25.74,12.614"/>
</g>
</svg>
